<svg width="334" height="301" fill="none" xmlns="http://www.w3.org/2000/svg"><path d="M21 59.246a126.627 126.627 0 01-2.893-3.44 138.981 138.981 0 01-7.192-9.68C8.299 42.25 5.69 37.894 3.738 33.535 1.782 29.168.5 24.836.5 21 .5 9.666 9.666.5 21 .5S41.5 9.666 41.5 21c0 3.836-1.282 8.168-3.238 12.534-1.953 4.36-4.56 8.716-7.177 12.593a138.981 138.981 0 01-9.562 12.517c-.208.242-.384.444-.523.602zm-5.657-32.59a8 8 0 1011.314-11.314 8 8 0 00-11.314 11.315z" fill="#FFBD54" stroke="#000"/><path d="M299 219h35v82h-35v-82z" fill="#fff"/><path stroke="#949494" d="M302 259.5h29"/><path d="M322 281.5c0 .276-.044.5-.551.5h-9.898c-.506 0-.551-.224-.551-.5s.045-.5.551-.5h9.899c.506 0 .55.224.55.5zM321.312 239.812h-4.124v-4.124a.689.689 0 00-1.376 0v4.124h-4.124a.689.689 0 000 1.376h4.124v4.124a.689.689 0 001.376 0v-4.124h4.124a.689.689 0 000-1.376z" fill="#949494"/></svg>